A young couple go to a remote and deserted coral island for a camping holiday, only to find that the island is inhabited by a ghost seeking retribution for a past outrage.

IMDB rating: 4.5/10 (from 497 users)
Genres:Horror | Thriller

CAST:
Geraldine Hakewill.......Beth
Henry James..............Harry
Tasia Zalar..............Coral
Billy Milionis...........Spiro
Bob Baines...............Jackson
Terry Siourounis.........Elias

Format                           : Matroska
File size                        : 709 MiB
Duration                         : 1h 23mn
Overall bit rate                 : 1 184 Kbps
Encoded date                     : UTC 2011-09-30 01:37:40
Writing application              : mkvmerge v4.9.1 ('Ich will') creado el Jul 11 2011 23:53:15
Writing library                  : libebml v1.2.1 + libmatroska v1.1.1

Video
ID                               : 1
Format                           : AVC
Format/Info                      : Advanced Video Codec
Format profile                   : Main@L2.2
Format settings, CABAC           : Yes
Format settings, ReFrames        : 4 frames
Muxing mode                      : Container profile=Unknown@2.2
Codec ID                         : V_MPEG4/ISO/AVC
Duration                         : 1h 23mn
Bit rate                         : 1 033 Kbps
Nominal bit rate                 : 1 054 Kbps
Width                            : 624 pixels
Height                           : 336 pixels
Display aspect ratio             : 1.857
Frame rate                       : 23.976 fps
Resolution                       : 8 bits
Colorimetry                      : 4:2:0
Scan type                        : Progressive
Bits/(Pixel*Frame)               : 0.205
Stream size                      : 618 MiB (87%)
Writing library                  : x264 core 112

Audio
ID                               : 2
Format                           : AC-3
Format/Info                      : Audio Coding 3
Codec ID                         : A_AC3
Duration                         : 1h 23mn
Bit rate mode                    : Constant
Bit rate                         : 128 Kbps
Channel(s)                       : 2 channels
Channel positions                : Front: L R
Sampling rate                    : 48.0 KHz
Stream size                      : 76.6 MiB (11%)

Text(subtitles)
ID                               : 3
Format                           : VobSub
Codec ID                         : S_VOBSUB
Codec ID/Info                    : The same subtitle format used on DVDs
Language                         : ROMANIAN


Recommended player :VLC media player....http://www.videolan.org/vlc/

SEED back for SPEED